<svg width="21" height="20" viewBox="0 0 21 20" fill="none" xmlns="http://www.w3.org/2000/svg">
<path d="M8.69415 2.55798C8.69415 2.28067 8.58593 2.01689 8.38978 1.81398C8.19364 1.61783 7.92985 1.50961 7.64578 1.50961C7.07087 1.50961 6.59741 1.98307 6.59741 2.55798V8.11094L8.69415 7.54956V2.55798Z" fill="white"/>
<path d="M14.7479 2.18608C14.173 2.18608 13.6995 2.65953 13.6995 3.23444V8.47628C13.6995 8.55068 13.6386 8.61155 13.5642 8.61155C13.4898 8.61155 13.429 8.55068 13.429 8.47628V3.23444V2.55808C13.429 1.98317 12.9555 1.50971 12.3806 1.50971C11.8057 1.50971 11.3322 1.98317 11.3322 2.55808V8.47628C11.3322 8.55068 11.2714 8.61155 11.197 8.61155C11.1226 8.61155 11.0617 8.55068 11.0617 8.47628V2.55808V1.88171C11.0617 1.6044 10.9535 1.34062 10.7573 1.13771C10.5612 0.941562 10.2974 0.833344 10.0133 0.833344C9.4384 0.833344 8.96495 1.3068 8.96495 1.88171V2.55808V7.47526C9.34371 7.38057 9.736 7.43468 10.0742 7.63082C10.4191 7.82697 10.6626 8.15162 10.7708 8.53715C10.9805 9.3285 10.5138 10.1469 9.71571 10.3566L8.90407 10.573C10.737 11.1682 11.9612 12.9538 11.8124 14.9153C11.8057 14.9829 11.7448 15.037 11.6772 15.037C11.6704 15.037 11.6704 15.037 11.6636 15.037C11.5892 15.0303 11.5351 14.9694 11.5419 14.895C11.6907 12.9065 10.3312 11.1141 8.37651 10.7151L7.70691 10.8909C7.6325 10.9112 7.55811 10.8706 7.54458 10.7962C7.52429 10.7218 7.56487 10.6474 7.63927 10.6339L9.64808 10.0996C10.2974 9.9237 10.6829 9.2541 10.5071 8.61155C10.4259 8.30042 10.223 8.03664 9.93891 7.87431C9.65484 7.71199 9.33019 7.6714 9.01229 7.75257L6.40152 8.45599C5.75221 8.63184 5.36668 9.30145 5.54254 9.94399L6.78029 14.5636C6.86145 14.8612 7.19287 15.1182 7.504 15.1182H7.9504V18.5H14.4435V15.1182H14.5788C15.2484 15.1182 15.7962 14.5703 15.7962 13.9007V3.23444C15.7962 2.65953 15.3295 2.18608 14.7479 2.18608Z" fill="white"/>
</svg>
