<svg width="21" height="20" viewBox="0 0 21 20" fill="none" xmlns="http://www.w3.org/2000/svg">
<path d="M9.79755 5.58117C10.1734 5.79489 10.4387 6.14864 10.5566 6.56871C10.7851 7.43095 10.2692 8.32268 9.40696 8.55114L8.98689 8.66168C9.19324 8.83856 9.45118 8.93436 9.73122 8.93436C10.3576 8.93436 10.8735 8.41849 10.8735 7.79207V4.47573C10.8735 4.17357 10.7556 3.88616 10.5419 3.66507C10.3282 3.45135 10.0407 3.33344 9.73122 3.33344C9.1048 3.33344 8.58893 3.84931 8.58893 4.47573V5.41167C8.99426 5.3085 9.42907 5.36746 9.79755 5.58117Z" fill="white"/>
<path d="M12.3032 9.67105C12.9297 9.67105 13.4455 9.15518 13.4455 8.52876V5.21242C13.4455 4.586 12.9297 4.07013 12.3032 4.07013C11.6768 4.07013 11.1609 4.586 11.1609 5.21242V8.52876C11.1609 9.15518 11.6768 9.67105 12.3032 9.67105Z" fill="white"/>
<path d="M8.51569 8.78654C8.61149 8.81602 8.69993 8.8455 8.78836 8.88235C8.73678 8.83813 8.69256 8.79391 8.64834 8.74969L8.51569 8.78654Z" fill="white"/>
<path d="M8.28685 4.84377C8.28685 4.54162 8.16893 4.2542 7.95521 4.03311C7.74149 3.81939 7.45408 3.70148 7.14455 3.70148C6.51813 3.70148 6.00226 4.21735 6.00226 4.84377V6.10398L8.28685 5.4923V4.84377Z" fill="white"/>
<path d="M14.8832 4.43848C14.2568 4.43848 13.7409 4.95435 13.7409 5.58077V8.89711C13.7409 9.52353 14.2568 10.0394 14.8832 10.0394C15.5096 10.0394 16.0255 9.52353 16.0255 8.89711V5.58077C16.0255 4.95435 15.517 4.43848 14.8832 4.43848Z" fill="white"/>
<path d="M14.8826 10.3344C14.2341 10.3344 13.6888 9.89956 13.5045 9.30999C13.2466 9.70058 12.8044 9.96589 12.3033 9.96589C11.5516 9.96589 10.9325 9.38369 10.8736 8.65409C10.6083 9.00047 10.1956 9.22892 9.7239 9.22892C9.62073 9.22892 9.52492 9.22156 9.42911 9.19945C10.903 10.0691 11.8242 11.7272 11.6842 13.5181C11.6769 13.5918 11.6105 13.6507 11.5368 13.6507C11.5295 13.6507 11.5295 13.6507 11.5221 13.6507C11.441 13.6433 11.3821 13.577 11.3894 13.4959C11.5516 11.3293 10.0703 9.37632 7.94045 8.94151L7.21085 9.13312C7.12979 9.15523 7.04872 9.11101 7.03398 9.02994C7.01187 8.94888 7.05609 8.86781 7.13716 8.85307L9.32594 8.2635C10.0334 8.07189 10.4535 7.3423 10.2619 6.64218C10.1734 6.30318 9.95236 6.01576 9.64283 5.83889C9.33331 5.66202 8.97957 5.6178 8.63319 5.70624L5.78851 6.46531C5.44951 6.55374 5.16209 6.77483 4.98522 7.08436C4.80835 7.39388 4.76413 7.74763 4.85257 8.094L6.20121 13.1275C6.28965 13.4517 6.65076 13.7318 6.98976 13.7318H7.47616V17.4166H14.551V13.7318H14.6984C15.428 13.7318 16.0249 13.1348 16.0249 12.4052V9.77428C15.767 10.1133 15.3543 10.3344 14.8826 10.3344Z" fill="white"/>
</svg>
