<svg width="21" height="20" viewBox="0 0 21 20" fill="none" xmlns="http://www.w3.org/2000/svg">
<path d="M12.4756 11.7911C13.0727 11.7911 13.5644 11.2994 13.5644 10.7023V7.5414C13.5644 6.94434 13.0727 6.45264 12.4756 6.45264C11.8785 6.45264 11.3868 6.94434 11.3868 7.5414V10.7023C11.3868 11.2994 11.8715 11.7911 12.4756 11.7911Z" fill="white"/>
<path d="M8.47884 7.8507L6.97564 2.23129C6.89837 1.95032 6.72277 1.71852 6.46989 1.57101C6.21702 1.43052 5.922 1.38837 5.64103 1.46564C5.36006 1.54291 5.12826 1.71852 4.98075 1.97139C4.83324 2.22426 4.79812 2.51928 4.86836 2.80025L6.37155 8.41967L8.47884 7.8507Z" fill="white"/>
<path d="M14.9341 6.8038C14.337 6.8038 13.8453 7.2955 13.8453 7.89256V11.0535C13.8453 11.6505 14.337 12.1422 14.9341 12.1422C15.5312 12.1422 16.0229 11.6505 16.0229 11.0535V7.89256C16.0229 7.2955 15.5312 6.8038 14.9341 6.8038Z" fill="white"/>
<path d="M14.9344 12.4235C14.3162 12.4235 13.7965 12.009 13.6208 11.4471C13.375 11.8194 12.9535 12.0723 12.4759 12.0723C11.7173 12.0723 11.1062 11.4612 11.1062 10.7025V1.9222C11.1062 1.6342 10.9938 1.36026 10.7901 1.14953C10.5793 0.945823 10.3054 0.833435 10.0174 0.833435C9.42034 0.833435 8.92864 1.32513 8.92864 1.9222V7.73127C9.322 7.63293 9.7294 7.68912 10.0806 7.89282C10.4389 8.09653 10.6917 8.43369 10.8041 8.83408C11.0219 9.65592 10.5302 10.5059 9.70833 10.7236L8.86542 10.9484C10.769 11.5665 12.0404 13.4209 11.8859 15.458C11.8788 15.5282 11.8156 15.5844 11.7454 15.5844C11.7383 15.5844 11.7383 15.5844 11.7313 15.5844C11.6541 15.5774 11.5979 15.5142 11.6049 15.4369C11.7594 13.3718 10.3475 11.5103 8.31753 11.0959L7.62213 11.2785C7.54486 11.2996 7.46759 11.2574 7.45354 11.1802C7.43247 11.1029 7.47462 11.0256 7.55188 11.0116L9.63809 10.4497C10.3124 10.267 10.7128 9.57162 10.5302 8.90432C10.4459 8.5812 10.2352 8.30726 9.94013 8.13867C9.64511 7.97009 9.30795 7.92794 8.97781 8.01224L6.26644 8.73574C5.94333 8.82003 5.66938 9.03076 5.5008 9.32577C5.33221 9.62079 5.29007 9.95796 5.37436 10.2881L6.6598 15.0786C6.74409 15.3877 7.08828 15.6546 7.4114 15.6546H7.875V19.1668H14.6183V15.6546H14.7588C15.4542 15.6546 16.0231 15.0857 16.0231 14.3903V11.8826C15.7703 12.2127 15.3769 12.4235 14.9344 12.4235Z" fill="white"/>
</svg>
